# xmcd CD database file
#
# Track frame offsets:
#	150
#	13542
#	25420
#	33815
#	45096
#	55425
#	69432
#	78952
#	86632
#	96694
#	108061
#	117173
#	128329
#	136940
#	147487
#	161362
#	167865
#	182457
#
# Disc length: 2549 seconds
#
# Revision: 0
# Processed by: cddbd v1.5.1PL2 Copyright (c) Steve Scherf et al.
# Submitted via: CDex 1.51
#
DISCID=de09f312
DTITLE=Dick Haymes and Helen Forrest - Vocal Jazz
DYEAR=2001
DGENRE=Jazz
TTITLE0=It Might Might As Well Be Spring
TTITLE1=I Surrender Dear
TTITLE2=It's D'lovely
TTITLE3=Summertime
TTITLE4=The Best Things In Life Are Free
TTITLE5=You Send Me
TTITLE6=Did You Ever See A Dream Walking
TTITLE7=It Had To Be You
TTITLE8=The Breeze And I
TTITLE9=It's Magic
TTITLE10=Blue Skies
TTITLE11=Where Or When
TTITLE12=The Didn't Believe Me
TTITLE13=You'd Be So Nice To Come Home To
TTITLE14=To Each His Own
TTITLE15=The One I Love
TTITLE16=I'll Be Seeing You
TTITLE17=What A Difference A Day Made
EXTD=YEAR: 2001
EXTT0=
EXTT1=
EXTT2=
EXTT3=
EXTT4=
EXTT5=
EXTT6=
EXTT7=
EXTT8=
EXTT9=
EXTT10=
EXTT11=
EXTT12=
EXTT13=
EXTT14=
EXTT15=
EXTT16=
EXTT17=
PLAYORDER=
